<svg width="162" height="180" viewBox="0 0 162 180" fill="none" xmlns="http://www.w3.org/2000/svg">
<path d="M80 49V0L1.77379 46.8361L42.7609 70.5L80 49Z" fill="#B794F4"/>
<path d="M82 49V0L160.226 46.8361L119.239 70.5L82 49Z" fill="#B794F4"/>
<path d="M80 131V180L1.77379 133.164L42.7609 109.5L80 131Z" fill="#B794F4"/>
<path d="M82 131V180L160.226 133.164L119.239 109.5L82 131Z" fill="#B794F4"/>
<path d="M161.568 132V47.5L119.999 71.5V108L161.568 132Z" fill="#B794F4"/>
<path d="M161.568 132V47.5L119.999 71.5V108L161.568 132Z" fill="#B794F4"/>
<path d="M0 132V47.5L41.5692 71.5V108L0 132Z" fill="#B794F4"/>
<path d="M0 132V47.5L41.5692 71.5V108L0 132Z" fill="#B794F4"/>
</svg>
